<?xml version="1.0" encoding="UTF-8"?>
<svg width="200px" height="141px" viewBox="0 0 200 141" version="1.1" xmlns="http://www.w3.org/2000/svg" xmlns:xlink="http://www.w3.org/1999/xlink">
    <!-- Generator: Sketch 48.1 (47250) - //www.bohemiancoding.com/sketch -->
    <title>机器人 (6)</title>
    <desc>Created with Sketch.</desc>
    <defs>
        <linearGradient x1="50%" y1="100%" x2="50%" y2="0%" id="linearGradient-1">
            <stop stop-color="#FFD870" offset="0%"></stop>
            <stop stop-color="#FEAE80" offset="100%"></stop>
        </linearGradient>
        <rect id="path-2" x="0" y="0" width="200" height="140.924242" rx="3"></rect>
    </defs>
    <g id="百应官网-首页" stroke="none" stroke-width="1" fill="none" fill-rule="evenodd" transform="translate(-40.000000, -3642.000000)">
        <g id="Group-2" transform="translate(40.000000, 3642.000000)">
            <g id="机器人-(6)">
                <mask id="mask-3" fill="white">
                    <use xlink:href="#path-2"></use>
                </mask>
                <use id="Mask" fill="url(#linearGradient-1)" xlink:href="#path-2"></use>
                <g id="机器人-(5)" mask="url(#mask-3)" fill="#FFFFFF" fill-rule="nonzero" opacity="0.179999992">
                    <g transform="translate(18.775476, 105.219235) rotate(34.000000) translate(-18.775476, -105.219235) translate(-98.224524, -17.280765)" id="Shape">
                        <path d="M20.2918666,126.543362 L20.2918666,66.2064411 C20.2918666,63.8088215 18.3989202,61.8920499 16.0643944,61.8920499 C13.7133634,61.8920499 11.8369222,63.8237186 11.8369222,66.2064411 L11.8369222,126.543362 C11.8369222,128.940981 13.7295981,130.857477 16.0643944,130.857477 C18.4151546,130.857201 20.2918666,128.926084 20.2918666,126.543362 Z M229.128994,77.8071484 C226.777692,77.8071484 224.901522,79.7807154 224.901522,82.2149228 L224.901522,108.76626 C224.901522,111.171323 226.794198,113.174034 229.128994,113.174034 C231.479754,113.174034 233.356466,111.20075 233.356466,108.76626 L233.356466,82.2149228 C233.356466,79.8101419 231.46379,77.8071484 229.128994,77.8071484 Z M8.45494442,108.76626 L8.45494442,82.2149228 C8.45494442,79.809859 6.56199799,77.8071484 4.22747221,77.8071484 C1.87644123,77.8071484 0,79.7807154 0,82.2149228 L0,108.76626 C0,111.171323 1.89267593,113.174034 4.22747221,113.174034 C6.57823243,113.173751 8.45494442,111.200467 8.45494442,108.76626 Z M221.519544,126.543362 L221.519544,66.2064411 C221.519544,63.8088215 219.626597,61.8920499 217.292072,61.8920499 C214.94077,61.8920499 213.064599,63.8237186 213.064599,66.2064411 L213.064599,126.543362 C213.064599,128.940981 214.957275,130.857477 217.292072,130.857477 C219.642832,130.857201 221.519544,128.926084 221.519544,126.543362 Z M158.952955,122.015755 C172.961434,122.015755 184.317788,110.14018 184.317788,95.4905912 C184.317788,80.841568 172.961434,68.965427 158.952955,68.965427 C144.944476,68.965427 133.588122,80.8412852 133.588122,95.4905912 C133.588392,110.14018 144.944476,122.015755 158.952955,122.015755 Z M158.952955,77.8071484 C168.291991,77.8071484 175.862844,85.7243352 175.862844,95.4905912 C175.862844,105.25713 168.291991,113.174034 158.952955,113.174034 C149.613649,113.174034 142.043066,105.25713 142.043066,95.4905912 C142.043066,85.7246181 149.613919,77.8071484 158.952955,77.8071484 Z M76.0944998,122.015755 C90.1027083,122.015755 101.459333,110.14018 101.459333,95.4905912 C101.459333,80.841568 90.1029788,68.965427 76.0944998,68.965427 C62.0860208,68.965427 50.7296665,80.8412852 50.7296665,95.4905912 C50.729937,110.14018 62.0860208,122.015755 76.0944998,122.015755 Z M74.4035109,77.8071484 C83.7425469,77.8071484 91.3133997,85.7243352 91.3133997,95.4905912 C91.3133997,105.25713 83.7425466,113.174034 74.4035109,113.174034 C65.0642044,113.174034 57.4936221,105.25713 57.4936221,95.4905912 C57.4936218,85.7246181 65.0642044,77.8071484 74.4035109,77.8071484 Z M141.606424,0 L91.7497765,0 C87.1858865,0 83.4734087,3.91389108 83.4734087,8.7412001 L83.4734087,26.146343 L33.6863618,26.146343 C29.0953751,26.146343 25.3648333,30.0518669 25.3648333,34.8694141 L25.3648333,156.869969 C25.3648333,161.717917 29.0903277,165.592761 33.6863618,165.592761 L83.4734087,165.592761 L83.4734087,183.023564 L66.8622299,183.023564 C62.2980741,183.023564 58.5699232,186.937176 58.5699232,191.764485 L58.5699232,235.29059 C58.5699232,240.12264 62.2701807,244.031511 66.8346021,244.031511 L166.521864,244.031511 C171.05175,244.031511 174.786808,240.118178 174.786808,235.29059 L174.786808,191.764485 C174.786808,186.932713 171.074065,183.023564 166.494236,183.023564 L149.883057,183.023564 L149.883057,165.592761 L199.669838,165.592761 C204.260825,165.592761 207.991632,161.687517 207.991632,156.869969 L207.991633,34.8694141 C207.991633,30.0214662 204.265873,26.146343 199.669839,26.146343 L149.883057,26.146343 L149.883057,8.7412001 C149.883057,3.86368799 146.177221,0 141.606424,0 Z M91.3133997,8.84172141 L142.043066,8.84172141 L142.043066,26.5251642 L91.3133997,26.5251642 L91.3133997,8.84172141 Z M165.716911,192.086432 L165.716911,235.18979 L65.9485665,235.18979 L65.9485665,192.086432 L90.8907856,192.086432 L90.8907856,166.224363 L140.774692,166.224363 L140.774692,192.086432 L165.716911,192.086432 Z M192.868425,35.3668856 C197.485072,35.3668856 201.227677,39.2883116 201.227677,44.0442259 L201.227677,148.705579 C201.227677,153.497752 197.496323,157.382641 192.868425,157.382641 L42.1787618,157.382641 C37.5621148,157.382641 33.8197779,153.461215 33.8197779,148.70558 L33.8197777,44.044505 C33.8197777,39.2523328 37.551132,35.3671647 42.1787616,35.3671647 L192.868425,35.3671647 L192.868425,35.3668856 Z"></path>
                    </g>
                </g>
            </g>
        </g>
    </g>
</svg>