<?xml version="1.0" encoding="UTF-8"?>
<svg width="200px" height="141px" viewBox="0 0 200 141" version="1.1" xmlns="http://www.w3.org/2000/svg" xmlns:xlink="http://www.w3.org/1999/xlink">
    <!-- Generator: Sketch 48.1 (47250) - //www.bohemiancoding.com/sketch -->
    <title>机器人 (6)</title>
    <desc>Created with Sketch.</desc>
    <defs>
        <linearGradient x1="51.3234409%" y1="100%" x2="51.6158406%" y2="0%" id="linearGradient-1">
            <stop stop-color="#83BEF1" offset="0%"></stop>
            <stop stop-color="#6C91FC" offset="100%"></stop>
        </linearGradient>
        <rect id="path-2" x="0" y="0" width="200" height="140.924242" rx="3"></rect>
    </defs>
    <g id="易智呼首页" stroke="none" stroke-width="1" fill="none" fill-rule="evenodd" transform="translate(-40.000000, -3470.000000)">
        <g id="Group-2" transform="translate(40.000000, 3470.000000)">
            <g id="机器人-(6)">
                <mask id="mask-3" fill="white">
                    <use xlink:href="#path-2"></use>
                </mask>
                <use id="Mask" fill="url(#linearGradient-1)" xlink:href="#path-2"></use>
                <g opacity="0.179008152" mask="url(#mask-3)" fill="#FFFFFF" fill-rule="nonzero" id="Shape">
                    <g transform="translate(35.798327, 110.763992) rotate(-315.000000) translate(-35.798327, -110.763992) translate(-38.701673, 34.263992)">
                        <path d="M142.562958,100.02037 L135.115639,100.02037 C135.115639,77.1314981 126.604418,60.6006462 113.837586,50.4278142 L127.668321,14.8229024 C130.860029,14.8229024 132.987834,12.2796944 132.987834,8.46488245 C132.987834,5.92167446 131.923931,2.10686248 129.796126,0.835258487 C127.668321,-0.436345507 124.476613,-0.436345507 122.348807,2.10686248 C120.221002,4.65007047 120.221002,8.46488245 122.348807,11.0080904 L107.45417,46.6130023 C96.8151431,41.5265863 85.1122137,37.7117743 73.4092843,38.9833783 C61.7063549,38.9833783 50.0034256,41.5265863 39.3643988,47.8846063 L25.5336641,12.2796944 C26.5975668,9.73648644 26.5975668,5.92167446 25.5336641,3.37846647 C23.4058588,0.835258487 20.2141508,0.835258487 18.0863454,2.10686248 C14.8946374,3.37846647 13.8307347,5.92167446 14.8946374,9.73648644 C14.8946374,12.2796944 17.0224427,14.8229024 20.2141508,14.8229024 L35.1087882,50.4278142 C22.3419561,60.6006462 13.8307347,77.1314981 13.8307347,100.02037 L6.38341603,100.02037 C5.31951336,100.02037 3.19170801,101.291974 2.12780534,102.563578 C1.06390267,103.835182 0,106.37839 0,107.649994 L0,125.45245 C0,126.724054 1.06390267,129.267262 2.12780534,130.538866 C3.19170801,131.81047 4.25561069,133.082074 6.38341603,133.082074 L13.8307347,133.082074 L13.8307347,141.983302 C13.8307347,148.341322 18.0863454,152.156134 22.3419561,152.156134 L126.604418,152.156134 C131.923931,152.156134 135.115639,147.069718 135.115639,141.983302 L135.115639,133.082074 L142.562958,133.082074 C145.754666,133.082074 148.946374,129.267262 148.946374,125.45245 L148.946374,107.649994 C148.946374,105.106786 147.882471,103.835182 146.818569,102.563578 C145.754666,101.291974 144.690763,100.02037 142.562958,100.02037 Z M11.7029294,125.45245 L5.31951336,125.45245 L5.31951336,107.649994 L11.7029294,107.649994 L11.7029294,125.45245 Z M129.796126,140.711698 C129.796126,143.254906 128.732223,144.52651 126.604418,144.52651 L22.3419561,144.52651 C20.2141508,144.52651 19.1502481,143.254906 19.1502481,140.711698 L19.1502481,102.563578 C19.1502481,52.9710222 57.4507443,47.8846063 74.473187,46.6130023 C91.4956297,45.3413983 129.796126,51.6994182 129.796126,101.291974 L129.796126,140.711698 Z M142.562958,125.45245 L136.179542,125.45245 L136.179542,107.649994 L142.562958,107.649994 L142.562958,125.45245 Z"></path>
                        <path d="M98.102371,76.0780669 L51.8941889,76.0780669 C44.5428872,76.0780669 37.1915855,81.8583992 36.1413996,91.106931 C36.1413996,95.7311969 37.1915855,100.355463 40.3421434,103.823662 C43.4927013,107.291862 46.6432591,109.603995 50.844003,109.603995 L97.0521851,109.603995 C104.403487,109.603995 111.754788,103.823662 112.804974,94.5751305 C112.804974,89.9508646 111.754788,85.3265987 108.604231,81.8583992 C106.503859,77.2341333 102.303115,76.0780669 98.102371,76.0780669 Z M98.102371,101.511529 L51.8941889,101.511529 C47.6934451,101.511529 43.4927013,98.0433299 42.4425153,93.419064 C42.4425153,91.106931 42.4425153,87.6387316 44.5428872,85.3265987 C46.6432591,83.0144657 48.7436311,81.8583992 50.844003,81.8583992 L97.0521851,81.8583992 C101.252929,81.8583992 105.453673,85.3265987 106.503859,89.9508646 C107.554045,92.2629975 106.503859,95.7311969 104.403487,98.0433299 C103.353301,100.355463 101.252929,101.511529 98.102371,101.511529 Z"></path>
                    </g>
                </g>
            </g>
        </g>
    </g>
</svg>