<?xml version="1.0" encoding="UTF-8"?>
<svg width="200px" height="141px" viewBox="0 0 200 141" version="1.1" xmlns="http://www.w3.org/2000/svg" xmlns:xlink="http://www.w3.org/1999/xlink">
    <!-- Generator: Sketch 48.1 (47250) - //www.bohemiancoding.com/sketch -->
    <title>机器人 (6)</title>
    <desc>Created with Sketch.</desc>
    <defs>
        <linearGradient x1="50%" y1="100%" x2="49.0200453%" y2="0%" id="linearGradient-1">
            <stop stop-color="#67D2F7" offset="0%"></stop>
            <stop stop-color="#36B0EE" offset="100%"></stop>
        </linearGradient>
        <rect id="path-2" x="0" y="0" width="200" height="140.924242" rx="3"></rect>
    </defs>
    <g id="百应官网-首页" stroke="none" stroke-width="1" fill="none" fill-rule="evenodd" transform="translate(-650.000000, -3642.000000)">
        <g id="Group-2" transform="translate(650.000000, 3642.000000)">
            <g id="机器人-(6)">
                <mask id="mask-3" fill="white">
                    <use xlink:href="#path-2"></use>
                </mask>
                <use id="Mask" fill="url(#linearGradient-1)" xlink:href="#path-2"></use>
                <g id="机器人-(14)" opacity="0.18" mask="url(#mask-3)" fill="#FFFFFF" fill-rule="nonzero">
                    <g transform="translate(69.500000, 73.500000) rotate(32.000000) translate(-69.500000, -73.500000) translate(-31.000000, -15.000000)" id="Shape">
                        <path d="M178.475986,90.6325195 L178.475986,88.5 C178.475986,70.3734961 163.513832,55.4456829 145.345628,55.4456829 L105.803172,55.4456829 L105.803172,41.5843949 C114.352873,39.4518755 121.833773,30.9216206 121.833773,21.3253716 C121.833773,9.59607203 112.215448,0 100.45952,0 C88.7035923,0 79.0852673,9.59642606 79.0852673,21.3251946 C79.0852673,30.9216206 85.4973657,39.4516985 95.1158681,41.5843949 L95.1158681,55.4458599 L56.6420358,55.4458599 C38.4738323,55.4458599 23.511678,70.3734961 23.511678,88.5 L23.511678,90.6325195 C9.61867985,92.7650389 0,104.493984 0,118.355449 C0,132.216914 9.61850243,142.879335 22.443054,146.078379 C23.5118554,163.138535 37.4052084,177 55.5734119,177 L145.345628,177 C163.513832,177 177.407185,163.138535 178.475986,146.078379 C191.300538,143.945683 200.91904,132.216914 200.91904,118.355449 C201.987664,104.493984 192.369161,92.7650389 178.475808,90.6325195 L178.475986,90.6325195 Z M22.4428766,134.349434 C16.0306008,132.216914 10.6869489,125.819179 10.6869489,118.355449 C10.6869489,110.89172 16.0306008,104.493984 22.443054,101.295117 L22.443054,134.349434 L22.4428766,134.349434 Z M90.8410175,21.3251946 C90.8410175,15.9938074 95.1158681,10.6624203 101.528144,10.6624203 C106.871796,10.6624203 112.215448,14.9274592 112.215448,21.3251946 C112.215448,27.72293 107.94042,31.9877919 101.528144,31.9877919 C95.1160455,30.9216206 90.8410175,26.6565817 90.8410175,21.3251946 Z M167.788682,143.945506 C167.788682,156.7408 158.17018,166.337226 145.345628,166.337226 L56.6420358,166.337226 C43.8174842,166.337226 34.1989817,156.7408 34.1989817,143.945506 L34.1989817,88.5 C34.1989817,75.7048833 43.8174842,66.1084572 56.6420358,66.1084572 L146.414429,66.1084572 C159.238981,66.1084572 168.857483,75.7048833 168.857483,88.5 L168.857483,143.945683 L167.788682,143.945683 L167.788682,143.945506 Z M178.475808,134.349257 L178.475808,101.29494 C185.956886,103.427459 190.231914,109.825195 190.231914,118.355272 C191.300538,125.819002 185.956886,132.216737 178.475808,134.349257 Z"></path>
                        <path d="M139.980558,88 C131.436904,88 123.961117,95.5091233 123.961117,104.090877 C123.961117,112.67263 131.436904,120.181753 139.980558,120.181753 C148.524213,120.181753 156,112.67263 156,104.090877 C156,95.5091233 148.524391,88 139.980558,88 Z M139.980558,109.454384 C136.776776,109.454384 134.640863,107.308945 134.640863,104.090877 C134.640863,100.872808 136.776776,98.7271918 139.980558,98.7271918 C143.18434,98.7271918 145.320431,100.87263 145.320431,104.090877 C145.320431,107.309123 143.184518,109.454562 139.980558,109.454562 L139.980558,109.454384 Z M62.0194416,88 C53.4756094,88 46,95.5091233 46,104.090877 C46,112.67263 53.4756094,120.181753 62.0194416,120.181753 C70.5632738,120.181753 78.0388831,112.67263 78.0388831,104.090877 C78.0388831,95.5091233 70.5630965,88 62.0194416,88 Z M62.0194416,109.454384 C58.8156596,109.454384 56.6795686,107.308945 56.6795686,104.090877 C56.6795686,100.872808 58.8154823,98.7271918 62.0194416,98.7271918 C65.2234008,98.7271918 67.3591372,100.87263 67.3591372,104.090877 C67.3591372,107.309123 65.2232235,109.454562 62.0194416,109.454562 L62.0194416,109.454384 Z M115.417285,136.272808 L86.582538,136.272808 C83.3787561,136.272808 81.2426651,138.418247 81.2426651,141.636315 C81.2426651,144.854384 83.3785788,147 86.582538,147 L115.417285,147 C118.621067,147 120.757158,144.854562 120.757158,141.636315 C120.757158,139.490877 118.621244,136.272808 115.417285,136.272808 Z"></path>
                    </g>
                </g>
            </g>
        </g>
    </g>
</svg>